<?xml version="1.0" encoding="UTF-8"?>
<svg width="250px" height="250px" viewBox="0 0 250 250" version="1.1" xmlns="http://www.w3.org/2000/svg" xmlns:xlink="http://www.w3.org/1999/xlink">
    <!-- Generator: Sketch 64 (93537) - https://sketch.com -->
    <title>updraft-logo-text-color</title>
    <desc>Created with Sketch.</desc>
    <g id="updraft-logo-text-color" stroke="none" stroke-width="1" fill="none" fill-rule="evenodd">
        <line x1="75.75" y1="9.5" x2="75.75" y2="40.5" id="Path"></line>
        <g id="Group" transform="translate(69.000000, 16.500000)">
            <polyline id="Rectangle-Copy-3" fill="#FF6666" points="0 37.5 56 0 112.5 37.5 112.5 75 56 37.5 0 75"></polyline>
            <polyline id="Rectangle-Copy-4" fill="#66A3FF" points="0 97.5 56 60 112.5 97.5 112.5 135 56 97.5 0 135"></polyline>
        </g>
        <path d="M34.3528748,222.961426 C38.5862732,222.961426 41.8162537,221.9104 44.0428162,219.80835 C46.2693787,217.706299 47.3826599,214.758301 47.3826599,210.964355 L47.3826599,210.964355 L47.3826599,190.310059 L41.4280701,190.310059 L41.4280701,210.393066 C41.4280701,213.07373 40.8787537,215.032959 39.7801209,216.270752 C38.6814881,217.508545 36.9090271,218.127441 34.4627381,218.127441 C31.9725037,218.127441 30.1817322,217.512207 29.0904236,216.281738 C27.999115,215.05127 27.4534607,213.095703 27.4534607,210.415039 L27.4534607,210.415039 L27.4534607,190.310059 L21.4768982,190.310059 L21.4768982,210.92041 C21.4768982,214.743652 22.5682068,217.706299 24.750824,219.80835 C26.9334412,221.9104 30.1341248,222.961426 34.3528748,222.961426 Z M61.2753514,222.5 L61.2753514,210.107422 C62.5204686,210.224609 64.1391209,210.283203 66.1313084,210.283203 C68.46041,210.283203 70.4489354,210.019531 72.0968846,209.492188 C73.7448338,208.964844 75.02291,208.214111 75.9311131,207.23999 C76.8393162,206.265869 77.4911717,205.181885 77.8866795,203.988037 C78.2821873,202.794189 78.4799412,201.428223 78.4799412,199.890137 C78.4799412,197.678223 77.9562596,195.839844 76.9088963,194.375 C75.861533,192.910156 74.4369725,191.851807 72.6352147,191.199951 C70.8334569,190.548096 68.6654881,190.222168 66.1313084,190.222168 L66.1313084,190.222168 L55.4086522,190.222168 L55.4086522,222.5 L61.2753514,222.5 Z M65.4941014,205.976562 C62.8573827,205.976562 61.4511327,205.961914 61.2753514,205.932617 L61.2753514,205.932617 L61.2753514,194.660645 L66.1752537,194.660645 C68.2553319,194.660645 69.86666,195.12207 71.0092381,196.044922 C72.1518162,196.967773 72.7231053,198.31543 72.7231053,200.087891 C72.7231053,200.717773 72.6754979,201.2854 72.580283,201.790771 C72.4850682,202.296143 72.2873143,202.819824 71.9870213,203.361816 C71.6867284,203.903809 71.2838963,204.35791 70.7785252,204.724121 C70.2731541,205.090332 69.5700291,205.390625 68.6691502,205.625 C67.7682713,205.859375 66.7099217,205.976562 65.4941014,205.976562 Z M94.3281991,222.5 C99.8799569,222.5 104.223219,221.097412 107.357984,218.292236 C110.49275,215.487061 112.060133,211.484375 112.060133,206.28418 C112.060133,203.603516 111.631666,201.241455 110.774732,199.197998 C109.917799,197.154541 108.68733,195.484619 107.083326,194.188232 C105.479322,192.891846 103.564039,191.921387 101.337476,191.276855 C99.110914,190.632324 96.5913827,190.310059 93.7788827,190.310059 L93.7788827,190.310059 L84.4624765,190.310059 L84.4624765,222.5 L94.3281991,222.5 Z M94.6797616,217.731934 L90.4170663,217.731934 L90.4170663,195.100098 L94.0425546,195.100098 C98.0269296,195.100098 101.007887,195.997314 102.985426,197.791748 C104.962965,199.586182 105.951734,202.460938 105.951734,206.416016 C105.951734,210.107422 104.992262,212.91626 103.073316,214.842529 C101.154371,216.768799 98.3565194,217.731934 94.6797616,217.731934 L94.6797616,217.731934 Z M124.964055,222.5 L124.964055,208.657227 L129.951848,208.701172 C131.358098,208.701172 132.185734,208.708496 132.434758,208.723145 C132.771672,209.279785 133.650578,211.066895 135.071477,214.084473 L135.071477,214.084473 L138.828801,222.5 L145.332707,222.5 L140.542668,212.568359 C139.370793,210.151367 138.389348,208.496094 137.598332,207.602539 C141.480168,206.254883 143.421086,203.442383 143.421086,199.165039 C143.421086,197.714844 143.226994,196.45874 142.838811,195.396729 C142.450627,194.334717 141.923283,193.474121 141.256779,192.814941 C140.590275,192.155762 139.718693,191.63208 138.642033,191.243896 C137.565373,190.855713 136.430119,190.588379 135.236271,190.441895 C134.042424,190.29541 132.632512,190.222168 131.006535,190.222168 L131.006535,190.222168 L119.075383,190.222168 L119.075383,222.5 L124.964055,222.5 Z M131.533879,204.394531 C131.299504,204.394531 130.200871,204.390869 128.23798,204.383545 C126.655004,204.377638 125.638874,204.374113 125.189589,204.37297 L124.964055,204.372559 L124.964055,194.638672 L131.797551,194.638672 C133.877629,194.638672 135.423039,195.012207 136.433781,195.759277 C137.444523,196.506348 137.949894,197.670898 137.949894,199.25293 C137.949894,201.054688 137.451848,202.362061 136.455754,203.175049 C135.45966,203.988037 133.819035,204.394531 131.533879,204.394531 Z M154.061824,222.5 L157.269832,213.40332 L168.541805,213.40332 L171.72784,222.5 L177.836238,222.5 L166.168758,190.288086 L159.686824,190.288086 L147.843563,222.5 L154.061824,222.5 Z M167.025691,208.964844 L158.763973,208.964844 L162.96075,195.869141 C163.033992,196.147461 164.388973,200.512695 167.025691,208.964844 L167.025691,208.964844 Z M188.476977,222.5 L188.476977,208.85498 L200.759692,208.85498 L200.759692,204.174805 L188.476977,204.174805 L188.476977,195.03418 L201.396899,195.03418 L201.616625,190.310059 L182.566332,190.310059 L182.566332,222.5 L188.476977,222.5 Z M220.519082,222.5 L220.519082,195.078125 L229.857461,195.078125 L229.857461,190.310059 L205.160195,190.310059 L205.160195,195.078125 L214.54252,195.078125 L214.54252,222.5 L220.519082,222.5 Z" id="UPDRAFT" fill="#676767" fill-rule="nonzero"></path>
    </g>
</svg>