<?xml version="1.0" encoding="UTF-8"?>
<svg width="250px" height="250px" viewBox="0 0 250 250" version="1.1" xmlns="http://www.w3.org/2000/svg" xmlns:xlink="http://www.w3.org/1999/xlink">
    <!-- Generator: Sketch 64 (93537) - https://sketch.com -->
    <title>updraft-logo-text-color</title>
    <desc>Created with Sketch.</desc>
    <g id="updraft-logo-text-color" stroke="none" stroke-width="1" fill="none" fill-rule="evenodd">
        <path d="M57.1228943,208.461426 C60.2576599,208.461426 62.7845154,207.677734 64.7034607,206.110352 C66.622406,204.52832 67.5818787,202.228516 67.5818787,199.210938 L67.5818787,199.210938 L67.5818787,183.852051 L61.8250427,183.852051 L61.8250427,198.991211 C61.8250427,200.807617 61.4551697,202.11499 60.7154236,202.91333 C59.9756775,203.71167 58.8001404,204.11084 57.1888123,204.11084 C55.5481873,204.11084 54.3506775,203.708008 53.596283,202.902344 C52.8418885,202.09668 52.4646912,200.792969 52.4646912,198.991211 L52.4646912,198.991211 L52.4646912,183.852051 L46.6858826,183.852051 L46.6858826,199.210938 C46.6858826,202.243164 47.6416931,204.542969 49.5533142,206.110352 C51.4649353,207.677734 53.9881287,208.461426 57.1228943,208.461426 Z M73.3554295,218.041504 L79.1122655,217.755859 L79.1120938,208.609784 C79.1085461,208.298476 79.0500096,207.121094 78.9364842,205.077637 C79.7714452,206.117676 80.8078221,206.94165 82.0456151,207.549561 C83.283408,208.157471 84.6640233,208.461426 86.1874608,208.461426 C89.2782811,208.461426 91.7282323,207.285889 93.5373143,204.934814 C95.3463963,202.58374 96.2509373,199.540527 96.2509373,195.805176 C96.2509373,193.41748 95.8627537,191.275146 95.0863866,189.378174 C94.3100194,187.481201 93.1711034,185.983398 91.6696385,184.884766 C90.1681737,183.786133 88.4286717,183.236816 86.4511327,183.236816 C84.8398045,183.236816 83.3786229,183.584717 82.0675877,184.280518 C80.7565526,184.976318 79.7055272,185.961426 78.9145116,187.23584 L78.9145116,187.23584 L78.2992772,183.852051 L73.3554295,183.852051 L73.3554295,218.041504 Z M84.956992,204.066895 C83.0087498,204.066895 81.540244,203.367432 80.5514745,201.968506 C79.5627049,200.56958 79.0683202,198.375977 79.0683202,195.387695 C79.1122655,190.202148 81.038535,187.609375 84.8471287,187.609375 C86.6195897,187.609375 88.003867,188.290527 88.9999608,189.652832 C89.9960545,191.015137 90.4941014,193.05127 90.4941014,195.76123 C90.4941014,198.427246 89.9997166,200.478027 89.0109471,201.913574 C88.0221776,203.349121 86.6708592,204.066895 84.956992,204.066895 Z M110.461988,208.461426 C111.340894,208.461426 112.142896,208.377197 112.867994,208.20874 C113.593092,208.040283 114.193678,207.842529 114.669752,207.615479 C115.145826,207.388428 115.588941,207.088135 115.999098,206.7146 C116.409254,206.341064 116.720533,206.011475 116.932935,205.72583 C117.145338,205.440186 117.376051,205.099609 117.625074,204.704102 L117.625074,204.704102 L118.262281,208 L123.250074,208 L123.250074,174.57959 L117.493238,174.953125 L117.493238,182.753418 C117.493238,184.086426 117.56648,185.470703 117.712965,186.90625 C116.292066,184.474609 113.86775,183.258789 110.440016,183.258789 C107.290601,183.258789 104.818678,184.397705 103.024244,186.675537 C101.22981,188.953369 100.332594,191.967285 100.332594,195.717285 C100.332594,199.584473 101.233473,202.675293 103.03523,204.989746 C104.836988,207.304199 107.312574,208.461426 110.461988,208.461426 Z M111.824293,204.088867 C110.051832,204.088867 108.649244,203.385742 107.616529,201.979492 C106.583814,200.573242 106.067457,198.529785 106.067457,195.849121 C106.067457,193.153809 106.583814,191.114014 107.616529,189.729736 C108.649244,188.345459 110.029859,187.65332 111.758375,187.65332 C113.735914,187.65332 115.22273,188.334473 116.218824,189.696777 C117.214918,191.059082 117.712965,193.227051 117.712965,196.200684 C117.654371,201.459473 115.69148,204.088867 111.824293,204.088867 Z M135.439641,208 L135.439641,194.904297 C135.439641,192.897461 135.963322,191.330078 137.010686,190.202148 C138.058049,189.074219 139.643742,188.510254 141.767766,188.510254 C142.397648,188.510254 143.005559,188.554199 143.591496,188.64209 L143.591496,188.64209 L143.679387,183.830078 C143.283879,183.771484 142.771184,183.742188 142.141301,183.742188 C139.138371,183.742188 136.845891,185.009277 135.263859,187.543457 L135.263859,187.543457 L134.516789,183.852051 L129.682805,183.852051 L129.682805,208 L135.439641,208 Z M153.935359,208.461426 C155.575984,208.461426 156.971248,208.186768 158.12115,207.637451 C159.271053,207.088135 160.44659,206.227539 161.647762,205.055664 C161.647762,205.108677 161.773669,205.515429 162.025482,206.275919 L162.232055,206.896883 C162.459853,207.582071 162.58003,207.949777 162.592586,208 L162.592586,208 L166.855281,208 L166.855281,192.245605 C166.855281,189.081543 166.115535,186.792725 164.636043,185.37915 C163.156551,183.965576 160.790828,183.258789 157.538875,183.258789 C154.228328,183.258789 151.152156,183.866699 148.310359,185.08252 C148.325008,185.111816 148.566707,185.770996 149.035457,187.060059 C149.504207,188.349121 149.745906,189.015625 149.760555,189.05957 C152.646297,187.960938 155.070613,187.411621 157.033504,187.411621 C158.410457,187.411621 159.435848,187.744873 160.109676,188.411377 C160.783504,189.077881 161.120418,190.143555 161.120418,191.608398 L161.120418,191.608398 L161.120418,192.882812 C160.739559,192.926758 160.219539,192.978027 159.560359,193.036621 C158.90118,193.095215 158.307918,193.153809 157.780574,193.212402 C157.253231,193.270996 156.762508,193.32959 156.308406,193.388184 C152.997859,193.710449 150.522273,194.47583 148.881648,195.684326 C147.241023,196.892822 146.420711,198.749512 146.420711,201.254395 C146.420711,203.583496 147.11285,205.366943 148.497127,206.604736 C149.881404,207.842529 151.694148,208.461426 153.935359,208.461426 Z M155.495418,204.374512 C154.382137,204.374512 153.525203,204.099854 152.924617,203.550537 C152.324031,203.001221 152.023738,202.213867 152.023738,201.188477 C152.023738,199.694336 152.565731,198.610352 153.649715,197.936523 C154.733699,197.262695 156.440242,196.823242 158.769344,196.618164 C158.827938,196.618164 159.219783,196.588867 159.944881,196.530273 L160.069304,196.520237 C160.714038,196.468334 161.057085,196.442383 161.098445,196.442383 L161.098445,196.442383 L161.098445,201.100586 C160.673641,202.008789 159.966854,202.781494 158.978084,203.418701 C157.989314,204.055908 156.828426,204.374512 155.495418,204.374512 Z M180.47307,208 L180.47307,187.675293 L186.142016,187.675293 L186.142016,183.852051 L180.47307,183.852051 L180.47307,182.204102 C180.47307,180.827148 180.73308,179.842041 181.2531,179.248779 C181.773119,178.655518 182.648363,178.358887 183.878832,178.358887 C184.567309,178.358887 185.512133,178.439453 186.713305,178.600586 L186.713305,178.600586 L187.218676,174.315918 C185.695238,174.037598 184.201098,173.898438 182.736254,173.898438 C181.227465,173.898438 179.956713,174.077881 178.923998,174.436768 C177.891283,174.795654 177.067309,175.344971 176.452074,176.084717 C175.83684,176.824463 175.393725,177.714355 175.122729,178.754395 C174.851733,179.794434 174.716234,181.046875 174.716234,182.511719 L174.716234,182.511719 L174.716234,183.852051 L171.266527,184.291504 L170.892992,187.675293 L174.716234,187.675293 L174.716234,208 L180.47307,208 Z M200.045449,208.32959 C200.455606,208.32959 200.895059,208.307617 201.363809,208.263672 C201.832559,208.219727 202.21708,208.172119 202.517373,208.12085 C202.817666,208.06958 203.132608,208.010986 203.462197,207.945068 C203.791787,207.87915 203.971231,207.846191 204.000528,207.846191 L204.000528,207.846191 L203.846719,203.715332 C202.89457,203.861816 202.001016,203.935059 201.166055,203.935059 C199.745156,203.935059 198.771035,203.546875 198.243692,202.770508 C197.716348,201.994141 197.452676,200.69043 197.452676,198.859375 L197.452676,198.859375 L197.452676,187.345703 L203.451211,187.345703 L203.451211,183.852051 L197.452676,183.852051 L197.452676,177.282227 L193.937051,177.304199 L192.091348,183.852051 L187.960488,184.225586 L187.740762,187.345703 L191.69584,187.345703 L191.69584,198.749512 C191.69584,200.419434 191.824014,201.822021 192.080361,202.957275 C192.336709,204.092529 192.7725,205.077637 193.387735,205.912598 C194.002969,206.747559 194.85624,207.359131 195.947549,207.747314 C197.038858,208.135498 198.404824,208.32959 200.045449,208.32959 Z" id="updraft" fill="#676767" fill-rule="nonzero"></path>
        <g id="Group-2" transform="translate(100.000000, 35.000000)" stroke-linecap="square">
            <g id="Group" stroke="#FF6666">
                <polyline id="Path-3" stroke-width="5" points="0 22 25 0 50 22"></polyline>
                <line x1="25" y1="5" x2="25" y2="45" id="Path-4" stroke-width="4"></line>
            </g>
            <g id="Group-Copy" transform="translate(0.000000, 52.500000)" stroke="#66A3FF">
                <polyline id="Path-3" stroke-width="5" points="0 22 25 0 50 22"></polyline>
                <line x1="25" y1="5" x2="25" y2="45" id="Path-4" stroke-width="4"></line>
            </g>
        </g>
    </g>
</svg>